<?xml version="1.0" encoding="UTF-8" standalone="no"?>
<!-- Created with Inkscape (http://www.inkscape.org/) -->
<svg width="90.790184mm" height="77.56839mm" viewBox="0 0 90.790184 77.56839" version="1.1" id="svg1" xmlns="http://www.w3.org/2000/svg" xmlns:svg="http://www.w3.org/2000/svg">
  
<defs id="hearts">
    <path style="stroke-width:4;stroke-linejoin:miter;" d="m 24.478541,2.009046 c -6.66637,-0.188569 -12.99392,2.582452 -16.88373,7.571631 c -16.58654,21.274394 5.40707,48.135634 37.80028,65.712264 c 32.39321,-17.57663 54.38682,-44.43787 37.80028,-65.712264 c -8.29825,-10.643582 -27.69078,-11.191224 -37.80028,5.552634 c -5.37067,-8.895175 -13.36134,-12.910554 -20.91655,-13.124265 z" id="heart"/>
    <path style="fill-opacity:0.4;" d="m 14.913231,3.892651 c -2.86701,1.29272 -5.39214,3.21733 -7.31842,5.68803 c -16.58652,21.27437 5.4071,48.13565 37.80028,65.71226 c 8.98654,-4.87612 17.16688,-10.46863 23.95099,-16.45636 l -0.17932,-1.08365 c -14.07361,2.90408 -57.82778,-15.21369 -54.25353,-53.86028 z" id="heartshadow"/>
    <path style="fill:#ffffff;" d="m 66.831491,7.518561 c 5.35455,-0.12313 14.28612,4.22156 15.50744,14.61307 c 0.55262,4.70189 -5.30001,6.92609 -8.10695,5.17884 c -4.17769,-2.60051 -2.53372,-7.91646 -6.22846,-12.2147 c -3.14555,-3.65936 -4.8321,-3.37569 -5.08865,-5.13756 c -0.20676,-1.41988 1.66736,-2.38793 3.91662,-2.43965 z" id="heartshine"/>
  <g id="heartgreen"><use href="#heart" fill="#47e05b" stroke="#1b902b"/><use href="#heartshadow" fill="#1b902b"/><use href="#heartshine"/></g>
</defs>
<use href="#heartgreen"/>
</svg>