<?xml version="1.0" encoding="UTF-8"?>
<svg width="100" height="93.557" version="1.1" viewBox="0 0 26.458 24.754" xmlns="http://www.w3.org/2000/svg">
 <g transform="translate(39.788 -154.92)">
  <path d="m-26.559 157.6 2.6632 7.5456h7.9894l-6.214 4.8824 2.2193 7.5456-6.6578-4.4386-6.6578 4.4386 2.2193-7.5456-6.214-4.8824h7.9894z" stroke="#fff" stroke-width="4" style="fill:#e5b90a;stroke-width:1.7823;stroke:#8d5a07"/>
  <path d="m-26.559 157.6v11.096l-10.653-3.5509h7.9894z" style="fill:#fcdd57"/>
  <path d="m-26.559 168.69 6.6578 8.8771-6.6578-4.4386-6.6578 4.4386z" style="fill:#d9a507"/>
  <path d="m-26.559 157.6v11.096l10.653-3.5509h-7.9894z" style="fill:#d7a004"/>
  <path d="m-26.559 168.69 6.6578 8.8771-2.2193-7.5456 6.214-4.8824z" style="fill:#cc9704"/>
  <path d="m-37.211 165.14 10.653 3.5509-6.6578 8.8771 2.2193-7.5456z" style="fill:#facd08"/>
  <path d="m-29.222 165.14 2.6631 3.5509v-11.096z" style="fill:#facd05"/>
  <path d="m-23.896 165.14-2.6632 3.5509 10.653-3.5509z" style="fill:#f9c805"/>
  <path d="m-26.559 168.69 4.4386 1.3316 2.2193 7.5456z" style="fill:#b98204"/>
  <path d="m-26.559 168.69v4.4386l-6.6578 4.4386z" style="fill:#cd9704"/>
  <path d="m-26.559 168.69-4.4386 1.3316-6.214-4.8824z" style="fill:#e9b905"/>
 </g>
</svg>
