<?xml version="1.0" encoding="UTF-8"?>
<svg width="100" height="100" version="1.1" viewBox="0 0 26.458 26.458" xmlns="http://www.w3.org/2000/svg">
 <g transform="translate(-117.48 -134.14)">
  <g transform="matrix(.2967 0 0 .2967 86.673 92.509)" style="fill:#fff;stroke-width:6;stroke:#053894">
   <path d="m155.14 164.42-6.7345-16.257-6.734 16.257 6.734 16.258z" style="paint-order:stroke fill markers"/>
   <path d="m155.14 205.41-6.7345-16.257-6.734 16.257 6.734 16.258z" style="paint-order:stroke fill markers"/>
   <path d="m168.89 191.65 16.257-6.7345-16.257-6.734-16.258 6.734z" style="paint-order:stroke fill markers"/>
   <path d="m127.91 191.65 16.257-6.7345-16.257-6.734-16.258 6.734z" style="paint-order:stroke fill markers"/>
   <path d="m167.65 175.19 6.7337-16.258-16.257 6.7341-6.7345 16.258z" style="paint-order:stroke fill markers"/>
   <path d="m138.68 204.17 6.7337-16.258-16.257 6.7341-6.7345 16.258z" style="paint-order:stroke fill markers"/>
   <path d="m158.13 204.17 16.258 6.7337-6.7341-16.257-16.258-6.7345z" style="paint-order:stroke fill markers"/>
   <path d="m129.15 175.19 16.258 6.7337-6.7341-16.257-16.258-6.7345z" style="paint-order:stroke fill markers"/>
  </g>
  <g transform="matrix(.2967 0 0 .2967 147.31 129.25)">
   <path d="m-49.238 40.599-6.7345-16.257-6.734 16.257 6.734 16.258z" style="fill:#086df2"/>
   <path d="m-49.238 40.599-6.7345-16.257-6.734 16.257 6.734 16.258z" style="fill:#007ce8"/>
   <path d="m-52.281 40.599-3.6909-8.9101-3.6906 8.9101 3.6906 8.9104z" style="fill:#2ca3ff"/>
   <path d="m-55.972 24.342 1.22e-4 7.3474-3.6906 8.9101-3.0434-1.3e-4z" style="fill:#5db8ff"/>
   <path d="m-62.706 40.599 6.7341 16.258 4.2e-5 -7.3472-3.6906-8.9104z" style="fill:#008efa"/>
   <path d="m-52.281 40.599 3.0434-1.3e-4 -6.7345 16.258 1.22e-4 -7.3474z" style="fill:#005fc4"/>
  </g>
  <g transform="matrix(.2967 0 0 .2967 147.31 141.41)">
   <path d="m-49.238 40.599-6.7345-16.257-6.734 16.257 6.734 16.258z" style="fill:#086df2"/>
   <path d="m-49.238 40.599-6.7345-16.257-6.734 16.257 6.734 16.258z" style="fill:#007ce8"/>
   <path d="m-52.281 40.599-3.6909-8.9101-3.6906 8.9101 3.6906 8.9104z" style="fill:#2ca3ff"/>
   <path d="m-55.972 24.342 1.22e-4 7.3474-3.6906 8.9101-3.0434-1.3e-4z" style="fill:#5db8ff"/>
   <path d="m-62.706 40.599 6.7341 16.258 4.2e-5 -7.3472-3.6906-8.9104z" style="fill:#008efa"/>
   <path d="m-52.281 40.599 3.0434-1.3e-4 -6.7345 16.258 1.22e-4 -7.3474z" style="fill:#005fc4"/>
  </g>
  <g transform="matrix(0 .2967 -.2967 0 148.83 163.98)">
   <path d="m-49.238 40.599-6.7345-16.257-6.734 16.257 6.734 16.258z" style="fill:#086df2"/>
   <path d="m-49.238 40.599-6.7345-16.257-6.734 16.257 6.734 16.258z" style="fill:#005fc4"/>
   <path d="m-52.281 40.599-3.6909-8.9101-3.6906 8.9101 3.6906 8.9104z" style="fill:#2ca3ff"/>
   <path d="m-55.972 24.342 1.22e-4 7.3474-3.6906 8.9101-3.0434-1.3e-4z" style="fill:#007ce8"/>
   <path d="m-62.706 40.599 6.7341 16.258 4.2e-5 -7.3472-3.6906-8.9104z" style="fill:#5db8ff"/>
   <path d="m-52.281 40.599 3.0434-1.3e-4 -6.7345 16.258 1.22e-4 -7.3474z" style="fill:#0084e8"/>
  </g>
  <g transform="matrix(0 .2967 -.2967 0 136.67 163.98)">
   <path d="m-49.238 40.599-6.7345-16.257-6.734 16.257 6.734 16.258z" style="fill:#086df2"/>
   <path d="m-49.238 40.599-6.7345-16.257-6.734 16.257 6.734 16.258z" style="fill:#005fc4"/>
   <path d="m-52.281 40.599-3.6909-8.9101-3.6906 8.9101 3.6906 8.9104z" style="fill:#2ca3ff"/>
   <path d="m-55.972 24.342 1.22e-4 7.3474-3.6906 8.9101-3.0434-1.3e-4z" style="fill:#007ce8"/>
   <path d="m-62.706 40.599 6.7341 16.258 4.2e-5 -7.3472-3.6906-8.9104z" style="fill:#5db8ff"/>
   <path d="m-52.281 40.599 3.0434-1.3e-4 -6.7345 16.258 1.22e-4 -7.3474z" style="fill:#008efa"/>
  </g>
  <g transform="matrix(.2098 .2098 -.2098 .2098 155.26 146.3)" style="opacity:.5">
   <path d="m-49.238 40.599-6.7345-16.257-6.734 16.257 6.734 16.258z" style="fill:#086df2"/>
   <path d="m-49.238 40.599-6.7345-16.257-6.734 16.257 6.734 16.258z" style="fill:#8ecff8"/>
   <path d="m-52.281 40.599-3.6909-8.9101-3.6906 8.9101 3.6906 8.9104z" style="fill:#c1e9ff"/>
   <path d="m-55.972 24.342 1.22e-4 7.3474-3.6906 8.9101-3.0434-1.3e-4z" style="fill:#dff3ff"/>
   <path d="m-62.706 40.599 6.7341 16.258 4.2e-5 -7.3472-3.6906-8.9104z" style="fill:#b6e4fc"/>
   <path d="m-52.281 40.599 3.0434-1.3e-4 -6.7345 16.258 1.22e-4 -7.3474z" style="fill:#7ac1f0"/>
  </g>
  <g transform="matrix(.2098 .2098 -.2098 .2098 146.67 154.9)" style="opacity:.5">
   <path d="m-49.238 40.599-6.7345-16.257-6.734 16.257 6.734 16.258z" style="fill:#086df2"/>
   <path d="m-49.238 40.599-6.7345-16.257-6.734 16.257 6.734 16.258z" style="fill:#9ad4f9"/>
   <path d="m-52.281 40.599-3.6909-8.9101-3.6906 8.9101 3.6906 8.9104z" style="fill:#c1e9ff"/>
   <path d="m-55.972 24.342 1.22e-4 7.3474-3.6906 8.9101-3.0434-1.3e-4z" style="fill:#dff3ff"/>
   <path d="m-62.706 40.599 6.7341 16.258 4.2e-5 -7.3472-3.6906-8.9104z" style="fill:#a7defb"/>
   <path d="m-52.281 40.599 3.0434-1.3e-4 -6.7345 16.258 1.22e-4 -7.3474z" style="fill:#7ac1f0"/>
  </g>
  <g transform="matrix(-.2098 .2098 -.2098 -.2098 131.78 171.93)" style="opacity:.5">
   <path d="m-49.238 40.599-6.7345-16.257-6.734 16.257 6.734 16.258z" style="fill:#086df2"/>
   <path d="m-49.238 40.599-6.7345-16.257-6.734 16.257 6.734 16.258z" style="fill:#7ac1f0"/>
   <path d="m-52.281 40.599-3.6909-8.9101-3.6906 8.9101 3.6906 8.9104z" style="fill:#c1e9ff"/>
   <path d="m-55.972 24.342 1.22e-4 7.3474-3.6906 8.9101-3.0434-1.3e-4z" style="fill:#8ecff8"/>
   <path d="m-62.706 40.599 6.7341 16.258 4.2e-5 -7.3472-3.6906-8.9104z" style="fill:#a7defb"/>
   <path d="m-52.281 40.599 3.0434-1.3e-4 -6.7345 16.258 1.22e-4 -7.3474z" style="fill:#dff3ff"/>
  </g>
  <g transform="matrix(-.2098 .2098 -.2098 -.2098 123.18 163.33)" style="opacity:.5">
   <path d="m-49.238 40.599-6.7345-16.257-6.734 16.257 6.734 16.258z" style="fill:#086df2"/>
   <path d="m-49.238 40.599-6.7345-16.257-6.734 16.257 6.734 16.258z" style="fill:#7ac1f0"/>
   <path d="m-52.281 40.599-3.6909-8.9101-3.6906 8.9101 3.6906 8.9104z" style="fill:#c1e9ff"/>
   <path d="m-55.972 24.342 1.22e-4 7.3474-3.6906 8.9101-3.0434-1.3e-4z" style="fill:#9ad4f9"/>
   <path d="m-62.706 40.599 6.7341 16.258 4.2e-5 -7.3472-3.6906-8.9104z" style="fill:#dff3ff"/>
   <path d="m-52.281 40.599 3.0434-1.3e-4 -6.7345 16.258 1.22e-4 -7.3474z" style="fill:#a7defb"/>
  </g>
 </g>
</svg>
