<svg xmlns="http://www.w3.org/2000/svg" width="600" height="600" viewBox="0 0 50 50">
<defs>
<linearGradient id="grey" x1="0%" y1="0%" x2="0%" y2="100%">
<stop offset="0%" style="stop-color:#7f7f7f"></stop>
<stop offset="100%" style="stop-color:#bfbfbf"></stop>
</linearGradient>
</defs>

<circle cx="25" cy="25" r="25" fill="url(#grey)"></circle>
<g>

<path id="outer" d="M 25 50 L 26.225214254119507 37.439809083402466 L 29.877258050403206 49.51963201008076 L 28.62855846568078 36.961754196652606 L 34.56708580912724 48.09698831278217 L 30.892459210324972 36.024015804354434 L 38.889255825490054 45.78674030756363 L 32.92991605204557 34.662630667034215 L 42.67766952966369 42.67766952966369 L 34.66263066703421 32.92991605204557 L 45.78674030756363 38.889255825490054 L 36.024015804354434 30.892459210324972 L 48.09698831278217 34.56708580912725 L 36.96175419665261 28.62855846568078 L 49.51963201008076 29.877258050403206 L 37.43980908340246 26.22521425411951 L 50 25 L 37.439809083402466 23.774785745880493 L 49.51963201008076 20.122741949596794 L 36.96175419665261 21.371441534319224 L 48.09698831278217 15.432914190872756 L 36.024015804354434 19.107540789675028 L 45.78674030756363 11.110744174509952 L 34.662630667034215 17.070083947954434 L 42.67766952966369 7.322330470336315 L 32.92991605204557 15.337369332965787 L 38.889255825490054 4.213259692436367 L 30.89245921032497 13.97598419564556 L 34.56708580912725 1.9030116872178304 L 28.62855846568078 13.03824580334739 L 29.877258050403213 0.48036798991923746 L 26.22521425411951 12.56019091659754 L 25.000000000000004 0 L 23.774785745880493 12.560190916597538 L 20.12274194959679 0.48036798991923746 L 21.371441534319217 13.03824580334739 L 15.432914190872758 1.9030116872178304 L 19.107540789675028 13.975984195645562 L 11.110744174509952 4.213259692436363 L 17.070083947954434 15.337369332965785 L 7.322330470336315 7.322330470336308 L 15.337369332965793 17.070083947954426 L 4.21325969243637 11.110744174509946 L 13.975984195645562 19.107540789675028 L 1.9030116872178375 15.432914190872742 L 13.038245803347392 21.37144153431921 L 0.480367989919241 20.122741949596783 L 12.56019091659754 23.774785745880482 L 0 24.999999999999996 L 12.560190916597538 26.2252142541195 L 0.48036798991923746 29.877258050403206 L 13.038245803347388 28.628558465680776 L 1.903011687217834 34.56708580912725 L 13.975984195645562 30.89245921032497 L 4.213259692436363 38.88925582549005 L 15.337369332965782 32.92991605204556 L 7.322330470336308 42.67766952966369 L 17.070083947954426 34.66263066703421 L 11.110744174509946 45.78674030756363 L 19.107540789675028 36.024015804354434 L 15.43291419087274 48.09698831278216 L 21.37144153431921 36.961754196652606 L 20.122741949596783 49.519632010080755 L 23.774785745880482 37.43980908340246 Z" fill="#ffff99"></path>

<path id="mitter" d="M 25 50 L 25.784137122636483 32.96147781337758 L 29.877258050403206 49.51963201008076 L 27.3222774180357 32.65552268585767 L 34.56708580912724 48.09698831278217 L 28.77117389460798 32.05537011478684 L 38.889255825490054 45.78674030756363 L 30.075146273309166 31.184083626901895 L 42.67766952966369 42.67766952966369 L 31.184083626901895 30.075146273309166 L 45.78674030756363 38.889255825490054 L 32.05537011478684 28.771173894607983 L 48.09698831278217 34.56708580912725 L 32.65552268585767 27.3222774180357 L 49.51963201008076 29.877258050403206 L 32.96147781337758 25.784137122636487 L 50 25 L 32.96147781337758 24.215862877363517 L 49.51963201008076 20.122741949596794 L 32.65552268585767 22.677722581964304 L 48.09698831278217 15.432914190872756 L 32.05537011478684 21.228826105392017 L 45.78674030756363 11.110744174509952 L 31.184083626901895 19.924853726690838 L 42.67766952966369 7.322330470336315 L 30.075146273309166 18.815916373098105 L 38.889255825490054 4.213259692436367 L 28.77117389460798 17.94462988521316 L 34.56708580912725 1.9030116872178304 L 27.3222774180357 17.34447731414233 L 29.877258050403213 0.48036798991923746 L 25.784137122636487 17.038522186622426 L 25.000000000000004 0 L 24.215862877363517 17.038522186622423 L 20.12274194959679 0.48036798991923746 L 22.6777225819643 17.34447731414233 L 15.432914190872758 1.9030116872178304 L 21.22882610539202 17.94462988521316 L 11.110744174509952 4.213259692436363 L 19.924853726690838 18.815916373098105 L 7.322330470336315 7.322330470336308 L 18.815916373098105 19.924853726690834 L 4.21325969243637 11.110744174509946 L 17.94462988521316 21.228826105392017 L 1.9030116872178375 15.432914190872742 L 17.34447731414233 22.677722581964293 L 0.480367989919241 20.122741949596783 L 17.038522186622426 24.21586287736351 L 0 24.999999999999996 L 17.038522186622423 25.78413712263648 L 0.48036798991923746 29.877258050403206 L 17.344477314142328 27.322277418035696 L 1.903011687217834 34.56708580912725 L 17.94462988521316 28.77117389460798 L 4.213259692436363 38.88925582549005 L 18.8159163730981 30.07514627330916 L 7.322330470336308 42.67766952966369 L 19.924853726690834 31.18408362690189 L 11.110744174509946 45.78674030756363 L 21.228826105392017 32.05537011478684 L 15.43291419087274 48.09698831278216 L 22.677722581964293 32.65552268585767 L 20.122741949596783 49.519632010080755 L 24.21586287736351 32.96147781337758 Z" fill="#ffff00"></path>

<path id="inner" d="M 25 50 L 25.294051420988684 27.985554180016592 L 29.877258050403206 49.51963201008076 L 25.870854031763386 27.870821007196625 L 34.56708580912724 48.09698831278217 L 26.414190210477994 27.645763793045067 L 38.889255825490054 45.78674030756363 L 26.903179852490936 27.31903136008821 L 42.67766952966369 42.67766952966369 L 27.31903136008821 26.903179852490936 L 45.78674030756363 38.889255825490054 L 27.645763793045063 26.414190210477994 L 48.09698831278217 34.56708580912725 L 27.870821007196625 25.870854031763386 L 49.51963201008076 29.877258050403206 L 27.985554180016592 25.294051420988684 L 50 25 L 27.985554180016592 24.705948579011316 L 49.51963201008076 20.122741949596794 L 27.870821007196625 24.129145968236614 L 48.09698831278217 15.432914190872756 L 27.645763793045067 23.585809789522006 L 45.78674030756363 11.110744174509952 L 27.31903136008821 23.096820147509064 L 42.67766952966369 7.322330470336315 L 26.903179852490936 22.68096863991179 L 38.889255825490054 4.213259692436367 L 26.414190210477994 22.354236206954933 L 34.56708580912725 1.9030116872178304 L 25.870854031763386 22.129178992803375 L 29.877258050403213 0.48036798991923746 L 25.294051420988684 22.014445819983408 L 25.000000000000004 0 L 24.70594857901132 22.014445819983408 L 20.12274194959679 0.48036798991923746 L 24.129145968236614 22.129178992803375 L 15.432914190872758 1.9030116872178304 L 23.585809789522006 22.354236206954933 L 11.110744174509952 4.213259692436363 L 23.096820147509064 22.68096863991179 L 7.322330470336315 7.322330470336308 L 22.68096863991179 23.096820147509064 L 4.21325969243637 11.110744174509946 L 22.354236206954937 23.585809789522006 L 1.9030116872178375 15.432914190872742 L 22.129178992803375 24.12914596823661 L 0.480367989919241 20.122741949596783 L 22.014445819983408 24.705948579011316 L 0 24.999999999999996 L 22.014445819983408 25.29405142098868 L 0.48036798991923746 29.877258050403206 L 22.129178992803375 25.870854031763386 L 1.903011687217834 34.56708580912725 L 22.354236206954933 26.414190210477994 L 4.213259692436363 38.88925582549005 L 22.68096863991179 26.903179852490936 L 7.322330470336308 42.67766952966369 L 23.096820147509064 27.31903136008821 L 11.110744174509946 45.78674030756363 L 23.585809789522006 27.645763793045063 L 15.43291419087274 48.09698831278216 L 24.12914596823661 27.870821007196625 L 20.122741949596783 49.519632010080755 L 24.705948579011316 27.985554180016592 Z" fill="#ffcc00"></path>

</g>

</svg>